<svg width="14" height="15" viewBox="0 0 14 15" fill="none" xmlns="http://www.w3.org/2000/svg">
<path d="M7 3.96118C8.95337 3.96118 10.5657 5.57349 10.5657 7.52686C10.5657 9.51123 8.95337 11.0925 7 11.0925C5.01562 11.0925 3.43433 9.51123 3.43433 7.52686C3.43433 5.57349 5.01562 3.96118 7 3.96118ZM7 9.85229C8.27124 9.85229 9.29443 8.8291 9.29443 7.52686C9.29443 6.25562 8.27124 5.23242 7 5.23242C5.69775 5.23242 4.67456 6.25562 4.67456 7.52686C4.67456 8.8291 5.72876 9.85229 7 9.85229ZM11.5269 3.83716C11.5269 4.30225 11.1548 4.67432 10.6897 4.67432C10.2246 4.67432 9.85254 4.30225 9.85254 3.83716C9.85254 3.37207 10.2246 3 10.6897 3C11.1548 3 11.5269 3.37207 11.5269 3.83716ZM13.8833 4.67432C13.9453 5.82153 13.9453 9.26318 13.8833 10.4104C13.8213 11.5266 13.5732 12.4878 12.7671 13.325C11.9609 14.1311 10.9688 14.3792 9.85254 14.4412C8.70532 14.5032 5.26367 14.5032 4.11646 14.4412C3.00024 14.3792 2.03906 14.1311 1.2019 13.325C0.395752 12.4878 0.147705 11.5266 0.0856934 10.4104C0.0236816 9.26318 0.0236816 5.82153 0.0856934 4.67432C0.147705 3.55811 0.395752 2.56592 1.2019 1.75977C2.03906 0.953613 3.00024 0.705566 4.11646 0.643555C5.26367 0.581543 8.70532 0.581543 9.85254 0.643555C10.9688 0.705566 11.9609 0.953613 12.7671 1.75977C13.5732 2.56592 13.8213 3.55811 13.8833 4.67432ZM12.395 11.6196C12.7671 10.7205 12.6741 8.55005 12.6741 7.52686C12.6741 6.53467 12.7671 4.36426 12.395 3.43408C12.147 2.84497 11.6819 2.34888 11.0928 2.13184C10.1626 1.75977 7.99219 1.85278 7 1.85278C5.97681 1.85278 3.8064 1.75977 2.90723 2.13184C2.28711 2.37988 1.82202 2.84497 1.57397 3.43408C1.2019 4.36426 1.29492 6.53467 1.29492 7.52686C1.29492 8.55005 1.2019 10.7205 1.57397 11.6196C1.82202 12.2397 2.28711 12.7048 2.90723 12.9529C3.8064 13.325 5.97681 13.2319 7 13.2319C7.99219 13.2319 10.1626 13.325 11.0928 12.9529C11.6819 12.7048 12.178 12.2397 12.395 11.6196Z" fill="#B2B2B9"/>
<a href="https://www.figma.com/design/f12JIeu5TKZgTH2Vu5ruSL/Trialem?node-id=3-2">
<rect fill="black" fill-opacity="0" x="0.0546875" y="-1.12813" width="13.8906" height="18.2562"/>
</a>
</svg>
