<svg width="16" height="15" viewBox="0 0 16 15" fill="none" xmlns="http://www.w3.org/2000/svg">
<path d="M14.3438 3.22998C14.3438 3.38623 14.3438 3.51123 14.3438 3.66748C14.3438 8.01123 11.0625 12.98 5.03125 12.98C3.15625 12.98 1.4375 12.4487 0 11.5112C0.25 11.5425 0.5 11.5737 0.78125 11.5737C2.3125 11.5737 3.71875 11.0425 4.84375 10.1675C3.40625 10.1362 2.1875 9.19873 1.78125 7.88623C2 7.91748 2.1875 7.94873 2.40625 7.94873C2.6875 7.94873 3 7.88623 3.25 7.82373C1.75 7.51123 0.625 6.19873 0.625 4.60498V4.57373C1.0625 4.82373 1.59375 4.94873 2.125 4.97998C1.21875 4.38623 0.65625 3.38623 0.65625 2.26123C0.65625 1.63623 0.8125 1.07373 1.09375 0.60498C2.71875 2.57373 5.15625 3.88623 7.875 4.04248C7.8125 3.79248 7.78125 3.54248 7.78125 3.29248C7.78125 1.47998 9.25 0.0112305 11.0625 0.0112305C12 0.0112305 12.8438 0.38623 13.4688 1.04248C14.1875 0.88623 14.9062 0.60498 15.5312 0.22998C15.2812 1.01123 14.7812 1.63623 14.0938 2.04248C14.75 1.97998 15.4062 1.79248 15.9688 1.54248C15.5312 2.19873 14.9688 2.76123 14.3438 3.22998Z" fill="#B2B2B9"/>
<path d="M0 14.0425H16V14.8237H0V14.0425Z" fill="#B2B2B9"/>
<a href="https://swsa">
<rect fill="black" fill-opacity="0" y="-1.2" width="16" height="18.4"/>
</a>
</svg>
