<svg width="18" height="13" viewBox="0 0 18 13" fill="none" xmlns="http://www.w3.org/2000/svg">
<path d="M17.1562 2.38623C17.5312 3.69873 17.5312 6.51123 17.5312 6.51123C17.5312 6.51123 17.5312 9.29248 17.1562 10.6362C16.9688 11.3862 16.375 11.9487 15.6562 12.1362C14.3125 12.48 9 12.48 9 12.48C9 12.48 3.65625 12.48 2.3125 12.1362C1.59375 11.9487 1 11.3862 0.8125 10.6362C0.4375 9.29248 0.4375 6.51123 0.4375 6.51123C0.4375 6.51123 0.4375 3.69873 0.8125 2.38623C1 1.63623 1.59375 1.04248 2.3125 0.85498C3.65625 0.47998 9 0.47998 9 0.47998C9 0.47998 14.3125 0.47998 15.6562 0.85498C16.375 1.04248 16.9688 1.63623 17.1562 2.38623ZM7.25 9.04248L11.6875 6.51123L7.25 3.97998V9.04248Z" fill="#B2B2B9"/>
<a href="https://www.figma.com/design/f12JIeu5TKZgTH2Vu5ruSL/Trialem?node-id=3-2">
<rect fill="black" fill-opacity="0" y="-1.2" width="18" height="18.4"/>
</a>
</svg>
