<!DOCTYPE svg PUBLIC "-//W3C//DTD SVG 1.1//EN" "http://www.w3.org/Graphics/SVG/1.1/DTD/svg11.dtd">
<!-- Uploaded to: SVG Repo, www.svgrepo.com, Transformed by: SVG Repo Mixer Tools -->
<svg fill="#f45d03" width="64px" height="64px" viewBox="0 0 24 24" xmlns="http://www.w3.org/2000/svg" stroke="#f45d03">
<g id="SVGRepo_bgCarrier" stroke-width="0"/>
<g id="SVGRepo_tracerCarrier" stroke-linecap="round" stroke-linejoin="round"/>
<g id="SVGRepo_iconCarrier">
<path d="M21.481,14.068l-2.2-6.585a1,1,0,0,0-.949-.683,4.865,4.865,0,0,1-2.893-.907A7.623,7.623,0,0,1,13.976,2.78a1,1,0,0,0-1.683-.487l-6,6a1,1,0,0,0,.016,1.43l12.537,12a1,1,0,0,0,1.4-.016L21.9,20.049a3.75,3.75,0,0,0,0-5.3A1.751,1.751,0,0,1,21.481,14.068Zm-.992,4.567-.967.967L8.43,8.984,12.544,4.87A7.358,7.358,0,0,0,14.03,7.307,6.076,6.076,0,0,0,17.6,8.757L19.583,14.7a3.778,3.778,0,0,0,.906,1.464A1.75,1.75,0,0,1,20.489,18.635ZM1,17a1,1,0,0,1,1-1h8a1,1,0,0,1,0,2H2A1,1,0,0,1,1,17Zm0-4a1,1,0,0,1,1-1H6a1,1,0,0,1,0,2H2A1,1,0,0,1,1,13Zm0,8a1,1,0,0,1,1-1H14a1,1,0,0,1,0,2H2A1,1,0,0,1,1,21Z"/>
</g>
</svg>