<svg xmlns="http://www.w3.org/2000/svg" width="257" height="120" viewBox="0 0 257 120" version="1.1"><path d="" stroke="none" fill="#fc5c04" fill-rule="evenodd"/><path d="M 208.503 6.297 C 206.618 8.182, 204.915 9.244, 204.719 8.657 C 204.494 7.982, 202.556 8.370, 199.463 9.709 C 194.588 11.819, 194.565 11.852, 194.873 16.117 C 195.663 27.061, 202.637 44.487, 210.534 55.250 C 214.197 60.242, 215.053 60.532, 222.190 59.192 L 225.880 58.500 221.380 52.500 C 211.617 39.484, 206.528 25.297, 210.452 22.040 C 213.566 19.455, 215.456 21.429, 221.500 33.579 C 224.800 40.213, 229.525 48.234, 232 51.403 L 236.500 57.166 241.949 56.551 C 244.946 56.213, 247.589 55.745, 247.822 55.511 C 248.055 55.278, 246.346 52.930, 244.023 50.293 C 237.725 43.146, 232.222 33.256, 227.866 21.256 C 221.408 3.467, 215.725 -0.925, 208.503 6.297 M 140 15.433 C 138.075 16.144, 132.312 18.829, 127.194 21.401 L 117.889 26.076 118.515 30.788 C 120.122 42.884, 125.788 61.861, 130.550 71.090 C 131.854 73.619, 132.019 73.656, 137.513 72.660 C 143.945 71.494, 143.863 72.407, 138.623 60.250 C 136.667 55.712, 135.289 52, 135.560 52 C 135.832 52, 139.529 54.634, 143.777 57.854 C 158.491 69.006, 158.478 69.001, 166.464 67.647 L 173.428 66.466 164.964 60.564 C 160.309 57.317, 154.588 53.109, 152.251 51.211 L 148.003 47.761 150.952 44.402 C 154.416 40.457, 155.456 35.969, 154.739 28.063 C 154.064 20.613, 151.889 16.506, 147.881 15.108 C 144.137 13.803, 144.450 13.790, 140 15.433 M 184.046 15.968 C 181.596 16.934, 179.417 18.249, 179.203 18.892 C 178.585 20.746, 181.988 34.927, 184.609 41.422 C 185.924 44.680, 187 48.344, 187 49.565 C 187 54.678, 180.806 52.714, 177.317 46.495 C 174.837 42.074, 171 28.824, 171 24.682 C 171 21.513, 170.883 21.495, 164.750 23.693 C 159.278 25.654, 159.251 25.775, 161.911 36.090 C 165.796 51.154, 169.642 57.218, 178.031 61.499 C 184.368 64.734, 190.768 65.542, 195.243 63.672 C 202.381 60.690, 202.499 56.440, 195.903 39.999 C 193.640 34.359, 191.208 26.399, 190.498 22.309 C 189.788 18.219, 189.047 14.725, 188.853 14.543 C 188.659 14.362, 186.496 15.003, 184.046 15.968 M 133.983 28.831 L 130.466 30.500 131.338 36 C 131.817 39.025, 132.344 41.644, 132.508 41.819 C 132.671 41.995, 134.680 41.577, 136.971 40.890 C 141.804 39.443, 144 36.814, 144 32.477 C 144 26.923, 140.607 25.688, 133.983 28.831 M 101.422 47.418 C 96.902 49.387, 90.898 54.999, 89.351 58.702 C 84.905 69.342, 92.670 77.929, 106.782 77.978 C 113.157 78, 118.972 76.240, 122.213 73.307 C 124.951 70.829, 124.399 69.592, 119.491 67.208 C 114.989 65.021, 114.980 65.020, 112.991 67.009 C 108.770 71.230, 100 68.511, 100 62.982 C 100 58.816, 103.424 56, 108.489 56 C 112.361 56, 112.727 55.741, 114.746 51.586 C 116.601 47.768, 116.684 47.093, 115.363 46.586 C 112.672 45.553, 104.599 46.035, 101.422 47.418 M 67.500 60.399 C 59.052 63.071, 53.198 67.667, 51.070 73.298 C 49.451 77.584, 51.959 82.667, 56.664 84.633 C 62.394 87.027, 74.214 86.190, 80.525 82.942 C 86.754 79.736, 87.358 77.603, 82.492 75.997 C 79.399 74.977, 78.604 75.048, 77.010 76.491 C 74.641 78.635, 68.375 80.074, 65.706 79.087 C 62.976 78.077, 63.716 77.749, 76.250 74.417 C 83.991 72.359, 86.999 71.131, 86.996 70.029 C 86.989 67.076, 82.921 61.865, 79.510 60.440 C 75.394 58.720, 72.836 58.711, 67.500 60.399 M 28.500 65.731 C 27.400 66.005, 22 68.026, 16.500 70.221 C 11 72.416, 5.440 74.621, 4.143 75.122 L 1.787 76.032 4.445 79.516 C 8.228 84.477, 10 89.245, 10 94.468 C 10 96.961, 10.251 99, 10.557 99 C 12.245 99, 20.637 96.604, 21.414 95.901 C 21.916 95.445, 22.250 93.032, 22.155 90.536 C 22.054 87.855, 22.424 86, 23.061 86 C 23.654 86, 27.498 87.398, 31.602 89.107 C 38.858 92.128, 39.246 92.180, 45.533 90.994 C 49.090 90.323, 52 89.441, 52 89.035 C 52 88.629, 48.737 86.811, 44.750 84.996 C 40.763 83.181, 37.313 81.539, 37.083 81.348 C 36.854 81.157, 38.285 79.538, 40.263 77.750 C 45.174 73.313, 45.776 70.685, 42.608 67.517 C 40.570 65.479, 39.177 65.022, 35.295 65.116 C 32.658 65.180, 29.600 65.457, 28.500 65.731 M 64.750 68.572 C 61.816 70.164, 60.897 72.637, 63.629 71.589 C 64.525 71.245, 67.225 70.469, 69.629 69.863 C 72.033 69.258, 74 68.366, 74 67.881 C 74 66.474, 67.759 66.940, 64.750 68.572 M 22.250 73.757 C 17.946 75.434, 17.325 76.386, 18.906 78.882 C 20.032 80.660, 25.277 79.740, 29.823 76.967 C 36.260 73.041, 30.428 70.569, 22.250 73.757 M 120.520 85.287 C 109.841 91.335, 109.122 107.958, 119.227 115.166 C 121.908 117.077, 123.767 117.500, 129.500 117.500 C 137.741 117.500, 141.805 115.263, 145.023 108.956 C 151.180 96.885, 142.885 83.033, 129.500 83.033 C 126.156 83.033, 123.182 83.779, 120.520 85.287 M 125 90.727 C 115.620 95.478, 116.686 107.554, 126.796 111.079 C 131.206 112.616, 136.861 109.807, 139.268 104.884 C 140.800 101.752, 140.867 100.762, 139.768 97.480 C 137.516 90.752, 130.912 87.732, 125 90.727 M 124.655 95.829 C 122.458 98.256, 122.550 103.283, 124.829 105.345 C 127.256 107.542, 132.283 107.450, 134.345 105.171 C 136.542 102.744, 136.450 97.717, 134.171 95.655 C 131.744 93.458, 126.717 93.550, 124.655 95.829" stroke="none" fill="#f45c04" fill-rule="evenodd"/></svg>